<svg xmlns="http://www.w3.org/2000/svg">
  <symbol viewBox="0 0 96 96" id="facebook">
    <path d="M96 47.8A47.9 47.9 0 1040.5 95V61.6H28.3V47.8h12.2V37.3c0-12 7.2-18.6 18.1-18.6a74 74 0 0110.8 1v11.7h-6c-6 0-7.9 3.6-7.9 7.4v9h13.3l-2.1 13.8H55.5V95A47.9 47.9 0 0096 47.8z"/>
  </symbol>
  <symbol viewBox="0 0 96 96" id="flickr">
    <path fill-rule="evenodd" d="M48 92c25 0 44-19 44-44S73 4 48 4 4 23 4 48s19 44 44 44zM30 63c8 0 14-7 14-15s-6-15-14-15-15 7-15 15 7 15 15 15zm37 0c7 0 14-7 14-15s-7-15-14-15c-9 0-15 7-15 15s6 15 15 15z"/>
  </symbol>
  <symbol viewBox="0 0 96 96" id="github">
    <path d="M4 49c0 20 13 36 30 42 2 0 3-1 3-2v-8c-12 3-15-6-15-6-2-5-5-6-5-6-4-3 1-3 1-3 4 1 6 5 6 5 4 7 11 5 13 3l3-5c-10-2-20-5-20-22 0-5 2-9 4-12 0-1-2-6 1-12 0 0 4-1 12 5a42 42 0 0122 0c8-6 12-5 12-5 2 6 1 11 0 12 3 3 5 7 5 12 0 17-10 20-20 22 1 1 3 3 3 7v12c0 1 1 3 3 3A44 44 0 0048 5C24 5 4 25 4 49z"/>
  </symbol>
  <symbol viewBox="0 0 96 96" id="twitter">
    <path d="M96 19c-4 2-7 4-11 4 4-2 7-7 8-11l-12 5c-4-4-9-7-15-7-11 0-20 9-20 20l1 5c-16 0-31-9-40-21a20 20 0 006 26l-9-2c0 10 7 18 16 19l-5 2-4-1c3 8 9 13 18 13-7 6-15 9-24 9H0c9 6 19 8 30 8 36 0 56-29 56-55v-3l10-10v-1z"/>
  </symbol>
  <symbol viewBox="0 0 96 96" id="mastodon">
    <path d="M71.3 1.2C69.5 1 62.6 0 46.7 0h-.1c-16 0-19.4 1-21.2 1.2C15 2.8 5.4 10.1 3.1 20.5a66 66 0 0 0-1 16c.3 7.6.3 15 1 22.5.5 5 1.3 9.9 2.5 14.7 2.2 9 11.1 16.4 19.8 19.5a53.7 53.7 0 0 0 32.2.6c2.3-.7 5-1.5 7.1-3l.1-.2v-7.4h-.3a81.1 81.1 0 0 1-18.8 2.2c-11 0-13.9-5.1-14.7-7.3a22.4 22.4 0 0 1-1.2-5.9h.2c6 1.4 12.3 2.2 18.5 2.2H53c6.3-.3 13-.6 19-1.8h.5c9.8-2 19-7.8 20-22.5l.1-6.7c0-2 .7-14.5 0-22.1a24.8 24.8 0 0 0-21.4-20ZM77.5 58H67.3V33.2c0-5.3-2.2-8-6.7-8-5 0-7.4 3.2-7.4 9.5v13.6H43V34.7c0-6.3-2.4-9.4-7.4-9.4-4.4 0-6.6 2.6-6.6 7.9V58H18.7V32.4a19 19 0 0 1 4-12.5 14 14 0 0 1 11-4.6c5.3 0 9.2 2 11.9 6l2.5 4.2 2.6-4.2c2.6-4 6.6-6 11.8-6 4.5 0 8.2 1.6 11 4.6 2.7 3.1 4 7.3 4 12.5V58Z"/>
  </symbol>
  <symbol viewBox="0 0 96 96" id="vimeo">
    <path d="M96 25.7C95.4 35 89 47.8 76.2 64c-13 17-24 25.5-33.1 25.5-5.6 0-10.4-5.2-14.2-15.6l-7.7-28.4C18.4 35.2 15.3 30 12 30c-.7 0-3.2 1.6-7.5 4.6L0 28.8c20.3-18 25-20.9 28.2-21.2C35.7 7 40.2 12 42 23c1.9 11.8 3.2 19.2 3.9 22 2.1 9.8 4.5 14.7 7.1 14.7 2 0 5-3.2 9-9.5 4-6.4 6.2-11.2 6.5-14.5.6-5.5-1.6-8.3-6.5-8.3-2.2 0-4.6.5-7 1.6C59.6 13.5 68.6 6 82 6.4c9.9.3 14.5 6.7 14 19.2z"/>
  </symbol>
</svg>
