<svg xmlns="http://www.w3.org/2000/svg">
  <symbol viewBox="0 0 96 96" id="facebook">
    <path d="M96 47.8A47.9 47.9 0 1040.5 95V61.6H28.3V47.8h12.2V37.3c0-12 7.2-18.6 18.1-18.6a74 74 0 0110.8 1v11.7h-6c-6 0-7.9 3.6-7.9 7.4v9h13.3l-2.1 13.8H55.5V95A47.9 47.9 0 0096 47.8z"/>
  </symbol>
  <symbol viewBox="0 0 96 96" id="flickr">
    <path fill-rule="evenodd" d="M48 92c25 0 44-19 44-44S73 4 48 4 4 23 4 48s19 44 44 44zM30 63c8 0 14-7 14-15s-6-15-14-15-15 7-15 15 7 15 15 15zm37 0c7 0 14-7 14-15s-7-15-14-15c-9 0-15 7-15 15s6 15 15 15z"/>
  </symbol>
  <symbol viewBox="0 0 96 96" id="github">
    <path d="M4 49c0 20 13 36 30 42 2 0 3-1 3-2v-8c-12 3-15-6-15-6-2-5-5-6-5-6-4-3 1-3 1-3 4 1 6 5 6 5 4 7 11 5 13 3l3-5c-10-2-20-5-20-22 0-5 2-9 4-12 0-1-2-6 1-12 0 0 4-1 12 5a42 42 0 0122 0c8-6 12-5 12-5 2 6 1 11 0 12 3 3 5 7 5 12 0 17-10 20-20 22 1 1 3 3 3 7v12c0 1 1 3 3 3A44 44 0 0048 5C24 5 4 25 4 49z"/>
  </symbol>
  <symbol viewBox="0 0 96 96" id="twitter">
    <path d="M96 19c-4 2-7 4-11 4 4-2 7-7 8-11l-12 5c-4-4-9-7-15-7-11 0-20 9-20 20l1 5c-16 0-31-9-40-21a20 20 0 006 26l-9-2c0 10 7 18 16 19l-5 2-4-1c3 8 9 13 18 13-7 6-15 9-24 9H0c9 6 19 8 30 8 36 0 56-29 56-55v-3l10-10v-1z"/>
  </symbol>
  <svg viewBox="0 0 192 192" id="mastodon" style="fill-rule:evenodd;clip-rule:evenodd;stroke-linejoin:round;stroke-miterlimit:2">
    <path d="M2004.3 228h-.57c-19.87.163-38.97 2.491-50.13 7.601-.5.213-24.58 10.78-24.58 46.99 0 7.394-.14 16.236.09 25.612.4 16.438 2 32.742 7.21 45.957 5.67 14.406 15.47 25.335 32.04 29.72 14.11 3.737 26.23 4.503 35.99 3.967h.01c18.41-1.021 28.71-6.695 28.71-6.695a6.018 6.018 0 0 0 3.16-5.558l-.56-12.178a5.984 5.984 0 0 0-2.56-4.646 5.995 5.995 0 0 0-5.24-.804s-11.04 3.471-23.45 3.047c-4.87-.167-9.84-.357-14.18-1.544-3.91-1.069-7.14-3.148-8.76-7.347 5.59.951 13.45 2.021 22.27 2.425 10.49.481 20.33-.592 30.33-1.785 12.37-1.477 23.76-6.688 31.4-13.091 5.8-4.865 9.47-10.509 10.5-15.801v-.001c3.23-16.623 3.05-40.428 3.04-41.319-.01-36.286-24.23-46.801-24.58-46.951-11.14-5.105-30.25-7.436-50.14-7.599Zm59.9 93.58.09-.471c3.1-15.948 2.73-38.451 2.73-38.451v-.067c0-27.633-17.49-36.04-17.49-36.04a.234.234 0 0 0-.05-.024c-10.05-4.616-27.33-6.379-45.26-6.527h-.41c-17.93.148-35.2 1.911-45.25 6.527l-.06.024s-17.48 8.407-17.48 36.04c0 7.308-.15 16.047.09 25.314v.004c.36 14.96 1.64 29.826 6.37 41.852 4.27 10.836 11.49 19.221 23.95 22.519 12.65 3.349 23.51 4.066 32.26 3.585 9.61-.533 16.56-2.512 20.36-3.891l-.04-.739c-5.11 1.018-12.33 2.033-20 1.771-16.29-.559-32.69-3.029-35.34-23.016a40.2 40.2 0 0 1-.35-5.4 6 6 0 0 1 2.3-4.719 5.998 5.998 0 0 1 5.13-1.109s12.59 3.066 28.55 3.798c9.81.45 19.01-.598 28.36-1.713 9.88-1.18 19.01-5.258 25.11-10.372 3.36-2.814 5.83-5.834 6.43-8.895Zm-54.2-36.244c.68-2.603 3.99-12.807 14.27-12.807 10.68 0 10.54 12.137 10.54 12.137v34.224c0 3.311 2.69 6 6 6s6-2.689 6-6v-34.406s-.68-23.955-22.54-23.955c-10 0-16.43 5.292-20.4 10.778-4.07-5.273-10.62-10.293-20.78-10.293-6.92 0-11.53 2.138-14.68 4.857-6.67 5.747-6.86 14.826-6.81 16.949l.02.455s-.01-.161-.02-.455v-.052 36.342c0 3.311 2.69 6 6 6s6-2.689 6-6v-36.342c0-.169-.01-.338-.02-.507 0 0-.5-4.577 2.66-7.298 1.45-1.252 3.66-1.949 6.85-1.949 10.65 0 14.18 9.844 14.91 12.386v20.233c0 3.311 2.69 6 6 6s6-2.689 6-6v-20.297Z" transform="translate(-1908 -212)"/>
  </svg>
  <symbol viewBox="0 0 96 96" id="vimeo">
    <path d="M96 25.7C95.4 35 89 47.8 76.2 64c-13 17-24 25.5-33.1 25.5-5.6 0-10.4-5.2-14.2-15.6l-7.7-28.4C18.4 35.2 15.3 30 12 30c-.7 0-3.2 1.6-7.5 4.6L0 28.8c20.3-18 25-20.9 28.2-21.2C35.7 7 40.2 12 42 23c1.9 11.8 3.2 19.2 3.9 22 2.1 9.8 4.5 14.7 7.1 14.7 2 0 5-3.2 9-9.5 4-6.4 6.2-11.2 6.5-14.5.6-5.5-1.6-8.3-6.5-8.3-2.2 0-4.6.5-7 1.6C59.6 13.5 68.6 6 82 6.4c9.9.3 14.5 6.7 14 19.2z"/>
  </symbol>
</svg>
