<svg xmlns="http://www.w3.org/2000/svg" viewBox="0 0 64 64">
  <style>
    path {
      fill: #23292f;
    }

    @media (prefers-color-scheme: dark) {
      path {
        fill: #fff;
      }
    }
  </style>
  <path fill-rule="evenodd" d="M35.6 9.6L37 13c.2 4.2.7 7.5 1.7 9.8.8 2 1.9 3.2 3.5 3.5a4 4 0 002.3-.3c.8-.4 1.5-1 2.2-1.8 1.5-1.8 2.9-4.8 4.3-9.1l2-.8-.8 3.4c2.6 10 2.8 18.2 1 24.6l-.2-.1c2 3 3.8 7.5 5.4 13.7l2.2 2.1c.8.5 1.3 1 1.6 1.4.3.5.4 1 .2 1.6-.1.4-.6.8-1.4 1-.7.3-1.6.5-2.7.5a25.5 25.5 0 01-5.5-.3c-.6-.1-.8-.4-.9-.5V61l2.4-.6a13.2 13.2 0 005.7-.2l-3.4-2.8c.2-1.3-1.2-5.1-4-11.7l-.5-.7c-.8 1.8-1.8 3.5-3 5L53 59l-6.5-7.6H45c-1.4-.6-1.6-.8-.1-1.5l1.6-.6c5.4-5.6 7.4-16.6 4.5-28.5a19 19 0 01-2.6 4.8c-1.8 2.3-4 3.3-6.5 3a5.7 5.7 0 01-3.2-1.4c-1-.8-1.6-2-2.2-3.4-.7-1.9-1-4.3-1.2-7.3v1.2a32.9 32.9 0 01-21.9 12c-4 1.2-7 2.8-8.8 5a9.3 9.3 0 00-1.9 7.7c.3 1.7.7 3.2 1.3 4.6-1.1 1.5-1.7 2.7-1.7 4 0 1.4.6 3 1.7 5 .5 1 .5 2 0 3.1l-.5 1c1.8 1.2 4.4.9 5.9-1l.1-.2L8.4 62c-1.2.7-4 .8-6 .1-.7-.2-1-.6-1.1-1-.2-.7 0-1.4.2-1.6.1-.2.7-.9.9-1.6l-.1-1c-.5-1-1.7-3.2-1.8-5.7 0-1.5.3-3 1.4-4.5a13.6 13.6 0 010-11.6c2.6-5.2 9.4-7.3 14.6-8.1 3.3-.5 10.7-3 18.9-11.6 0-1.8 0-3.7.2-5.8zm-9.7 20.6l-.9 10c2.8 3.2 6.6 5.8 11.5 7.7a12 12 0 001.2 3.3l.2.3-.2 4a20.6 20.6 0 005.4-.1c.1-.6-.6-1.5-1.5-2.7l-.7-.9H42c1.1.3 2.2 1.1 3 2.5l.2.3.8 1.5c-.1.7-1.7 1.3-3.7 1.5l-3.1.1h-.5a18 18 0 01-2.6-.1l-.4-4.7-1-2.7-6.4 3c-4-3.5-7.5-5.6-10.8-6-1.4-.2-2.8 0-4.2.4a6 6 0 011 3.2v.2l5.3 5.7 3.2.2c.4 0 1.2 0 2.4.4.5.3.4.6.3.7-.1.3-.5.5-1.2.6l-1.6-.1-1 .2H19.2l-7-6.7v-1.7l.5-.6-.3-1.6c-1 .5-2 1.3-3 2.3a18.1 18.1 0 01-1 2.3c-.3 1.2-.2 2 0 2.3l-.8.5c-1-1.2-1.3-2.2-1.3-3 0-.7.4-1.4.9-2 .2-.3.5-.6.5-1s.4-1 1.4-1.8a13 13 0 018.2-2.5 21 21 0 0111.5 5.3c.4 0 1.4-.5 2.4-.9l.4-.2 1.7-.6a27 27 0 01-10.1-7.4l-.2-.3 3-10.9zM18.4 3.4L21 4.7a9 9 0 01-2.4 4.7 6.5 6.5 0 01-4.1 1.9c-.2 0-.8 0-1.6-.3l1.3-.6c2-1.2 3.5-2.6 4.2-4.3-5.4 3.6-9.4 7-11.6 10.9-2 3.5-2.6 7.3-1.2 11.8l.2.5L4.4 31a15 15 0 010-14.7c2.3-4.4 7-8.8 14-13zm25-.9c2.3 0 5 .6 8 2l12.1.1v2.6l-15.3 6.2 5-4 6.5-2.8h-9.4c-2-1.2-4.3-1.7-7-1.7-2.6 0-5 1.2-7 3.7L24 11l11-4.2c2.3-2.9 5-4.3 8.3-4.3z"/>
</svg>
